# xmcd
# 
# Track frame offsets:
#     150
#     17757
#     37567
#     54122
#     70922
#     89425
#     106652
#     120572
#     134752
#     150367
#     166505
#     183157
#     200395
#     216320
#     232427
#     248100
#     264232
#     281812
#     299925
#     319187
# 
# Disc length: 4486
# 
# Revision: 4
# Processed by: cddbd v1.5.2PL0 Copyright (c) Steve Scherf et al.
# Submitted via: fre:ac v1.0.31
# 
DISCID=1c118414
DTITLE=Various Artist - Hit Connection 2001 Vol 2
DYEAR=2001
DGENRE=Pop-Misc
TTITLE0=Liane Foly - On a tous le droit
TTITLE1=Janet Jackson - All for you
TTITLE2=Chante Moore - Straight up
TTITLE3=Twarres - Wêr Bisto
TTITLE4=Dido - Here with me
TTITLE5=Texas - Inner smile
TTITLE6=Safri Duo - Played-a-live
TTITLE7=Da Muttz - Wassuup!
TTITLE8=Rui Da Silva feat Cassandra - Touch Me
TTITLE9=Gigi D'agostino - La passion
TTITLE10=Planet Funk - Chase the sun
TTITLE11=Placebo - Special K
TTITLE12=Sonique - Put a spell on you
TTITLE13=ATC - Why oh why
TTITLE14=Magic Box - Carillon
TTITLE15=Santos - Camels
TTITLE16=Black Project feat Claude François - Don't cry baby
TTITLE17=Nelly Furtado - I'm like a bird
TTITLE18=Robbie Williams - Suprême
TTITLE19=Alec Mansion - Cette femme est un héros
EXTD=
EXTT0=
EXTT1=
EXTT2=
EXTT3=
EXTT4=
EXTT5=
EXTT6=
EXTT7=
EXTT8=
EXTT9=
EXTT10=
EXTT11=
EXTT12=
EXTT13=
EXTT14=
EXTT15=
EXTT16=
EXTT17=
EXTT18=
EXTT19=
PLAYORDER=
